<svg width="74" height="86" viewBox="0 0 74 86" fill="none" xmlns="http://www.w3.org/2000/svg">
<path fill-rule="evenodd" clip-rule="evenodd" d="M36.2807 0.0133691C42.8297 -0.114468 49.2946 1.50535 55.0097 4.70608C60.7249 7.90681 65.4838 12.5728 68.7966 18.2237C72.1089 23.8746 73.8559 30.3063 73.8571 36.8566V61.4286C73.8571 63.8722 72.8866 66.2163 71.1586 67.9443C69.4306 69.6723 67.0865 70.6428 64.6428 70.6428H55.4286V82.9286C55.4286 84.6252 54.0534 86 52.3571 86H21.6428C19.9466 86 18.5714 84.6252 18.5714 82.9286V68.7828C13.4661 65.8354 9.13359 61.7007 5.94791 56.7184C2.41926 51.1997 0.425047 44.8404 0.170671 38.295C-0.083754 31.7496 1.41079 25.2547 4.50046 19.4788C7.59014 13.7028 12.1632 8.85472 17.7491 5.4334C23.3349 2.01208 29.7316 0.141206 36.2807 0.0133691ZM15.8658 44.2883C12.1784 33.9663 16.2683 22.1666 26.0984 16.4911C35.8034 10.888 47.8805 13.1149 55.0142 21.2119C56.8212 23.2629 56.401 26.3249 54.3728 28.1571C46.7163 35.0728 34.1138 43.9428 21.736 47.2218C19.2896 47.8699 16.7172 46.6714 15.8658 44.2883Z" fill="white"/>
</svg>
