<svg width="157" height="157" viewBox="0 0 157 157" fill="none" xmlns="http://www.w3.org/2000/svg">
<path fill-rule="evenodd" clip-rule="evenodd" d="M58.4547 151.665C49.6802 150.612 49.9141 151.08 49.9141 134.351V119.377L41.4917 122.77C23.2425 129.906 20.4336 128.151 9.43717 102.297C4.52374 90.833 4.40716 91.067 16.6907 84.8673L26.7514 79.8365C26.7514 79.8365 3.5888 61.4699 3.93931 61.8212C1.24868 59.3645 0.780779 55.3869 2.88697 52.4623C20.4344 27.1942 37.1635 20.1746 50.2654 32.4582L53.5405 35.5001L53.7752 29.1823C53.8918 25.6732 53.8918 20.058 53.6579 16.7822C53.0726 4.84994 65.824 2.15931 102.674 6.37092C113.788 7.65713 113.086 6.72141 112.267 20.058L111.565 31.8729L114.957 30.1188C127.007 23.9183 131.452 26.0237 144.671 43.4546C158.124 61.236 157.656 59.4819 150.404 65.565C141.864 72.8177 131.92 80.5383 130.283 81.1236C136.716 88.1424 148.532 101.362 148.532 101.362C150.17 103 150.988 105.222 150.988 107.445C150.988 109.668 149.936 111.89 148.298 113.411C128.762 131.31 117.648 135.404 108.055 128.034L102.674 123.94C102.674 123.94 102.323 144.295 102.206 145.582C101.738 150.846 78.6928 154.121 58.4547 151.665V151.665ZM95.421 102.649C100.685 103.468 106.885 106.86 113.437 112.709C120.339 118.909 120.222 118.909 126.89 113.411C129.815 110.955 132.739 108.615 133.441 108.147C134.26 107.562 133.441 106.159 131.218 104.17C109.576 85.3352 103.843 76.912 112.501 76.912C114.022 76.912 134.377 60.4176 134.377 60.4176L120.806 40.764L117.18 42.9868C94.0174 57.1418 87.5831 54.919 92.9643 34.5636C97.4099 17.7179 97.6438 15.0273 93.9001 15.0273C92.3791 15.0273 73.5454 13.5071 73.5454 13.5071L72.8428 27.4282C72.141 42.5189 73.1941 71.4141 45.7025 47.3149C37.748 40.2961 36.6948 38.6586 33.0685 42.5189C32.0154 43.6886 22.8903 54.8024 22.8903 54.8024C22.8903 54.8024 36.6948 66.0328 39.6194 68.1382C53.5405 77.6138 51.669 78.6669 35.4086 87.0901C29.2082 90.3652 23.8269 93.2898 23.3598 93.7576C22.8911 94.2255 33.419 114.347 33.419 114.347L44.5328 108.615C60.2088 100.426 69.0991 99.2562 67.345 109.434C66.1745 116.452 66.1745 142.189 66.1745 142.189L85.4769 142.424C85.4769 142.424 83.2541 121.366 84.3072 110.604C85.009 105.925 85.8281 101.245 95.421 102.649Z" fill="#007AFF"/>
</svg>
