<svg width="482" height="185" viewBox="0 0 482 185" fill="none" xmlns="http://www.w3.org/2000/svg">
<path d="M123.834 52.9512C123.834 60.223 122.445 67.0863 119.667 73.541C116.889 79.9141 113.09 85.5109 108.269 90.3315C103.53 95.0705 97.9741 98.8289 91.6011 101.607C85.228 104.385 78.4056 105.774 71.1338 105.774H53.4854C51.0342 105.774 48.7464 106.223 46.6221 107.122C44.4977 108.021 42.6185 109.287 40.9844 110.921C39.432 112.474 38.2064 114.312 37.3076 116.437C36.4089 118.561 35.9595 120.849 35.9595 123.3V140.826H119.054V176H0.785156V123.3C0.785156 116.028 2.17415 109.206 4.95215 102.833C7.73014 96.3778 11.4886 90.7809 16.2275 86.042C21.0482 81.2214 26.645 77.4629 33.0181 74.7666C39.3911 71.9886 46.2135 70.5996 53.4854 70.5996H71.1338C73.585 70.5996 75.8727 70.1502 77.9971 69.2515C80.1214 68.3527 81.9598 67.1271 83.5122 65.5747C85.1463 63.9406 86.4128 62.0614 87.3115 59.937C88.2103 57.731 88.6597 55.4023 88.6597 52.9512C88.6597 50.5 88.2103 48.2122 87.3115 46.0879C86.4128 43.9635 85.1463 42.1252 83.5122 40.5728C81.9598 38.9386 80.1214 37.6722 77.9971 36.7734C75.8727 35.8747 73.585 35.4253 71.1338 35.4253H8.38379V0.250977H71.1338C78.4056 0.250977 85.228 1.63997 91.6011 4.41797C97.9741 7.19596 103.53 10.9953 108.269 15.8159C113.09 20.5549 116.889 26.1108 119.667 32.4839C122.445 38.8569 123.834 45.6794 123.834 52.9512ZM187.319 163.499C187.319 166.44 186.788 169.218 185.726 171.833C184.664 174.366 183.193 176.572 181.314 178.451C179.435 180.33 177.229 181.801 174.696 182.863C172.163 184.007 169.426 184.579 166.484 184.579C163.625 184.579 160.888 184.007 158.273 182.863C155.74 181.801 153.493 180.33 151.532 178.451C149.653 176.572 148.141 174.366 146.998 171.833C145.935 169.218 145.404 166.44 145.404 163.499C145.404 160.639 145.935 157.943 146.998 155.41C148.141 152.877 149.653 150.671 151.532 148.792C153.493 146.913 155.74 145.442 158.273 144.38C160.888 143.236 163.625 142.664 166.484 142.664C169.426 142.664 172.163 143.236 174.696 144.38C177.229 145.442 179.435 146.913 181.314 148.792C183.193 150.671 184.664 152.877 185.726 155.41C186.788 157.943 187.319 160.639 187.319 163.499ZM333.409 52.9512C333.409 60.223 332.02 67.0863 329.242 73.541C326.464 79.9141 322.665 85.5109 317.844 90.3315C313.105 95.0705 307.549 98.8289 301.176 101.607C294.803 104.385 287.981 105.774 280.709 105.774H263.061C260.609 105.774 258.322 106.223 256.197 107.122C254.073 108.021 252.194 109.287 250.56 110.921C249.007 112.474 247.782 114.312 246.883 116.437C245.984 118.561 245.535 120.849 245.535 123.3V140.826H328.629V176H210.36V123.3C210.36 116.028 211.749 109.206 214.527 102.833C217.305 96.3778 221.064 90.7809 225.803 86.042C230.623 81.2214 236.22 77.4629 242.593 74.7666C248.966 71.9886 255.789 70.5996 263.061 70.5996H280.709C283.16 70.5996 285.448 70.1502 287.572 69.2515C289.697 68.3527 291.535 67.1271 293.087 65.5747C294.722 63.9406 295.988 62.0614 296.887 59.937C297.785 57.731 298.235 55.4023 298.235 52.9512C298.235 50.5 297.785 48.2122 296.887 46.0879C295.988 43.9635 294.722 42.1252 293.087 40.5728C291.535 38.9386 289.697 37.6722 287.572 36.7734C285.448 35.8747 283.16 35.4253 280.709 35.4253H217.959V0.250977H280.709C287.981 0.250977 294.803 1.63997 301.176 4.41797C307.549 7.19596 313.105 10.9953 317.844 15.8159C322.665 20.5549 326.464 26.1108 329.242 32.4839C332.02 38.8569 333.409 45.6794 333.409 52.9512ZM481.215 120.726C481.215 129.305 479.703 137.026 476.68 143.89C473.657 150.753 469.613 156.554 464.547 161.293C459.481 166.032 453.598 169.668 446.898 172.201C440.28 174.734 433.335 176 426.063 176H355.225V140.826H426.063C428.433 140.826 430.802 140.458 433.172 139.723C435.623 138.987 437.788 137.803 439.667 136.168C441.628 134.534 443.181 132.451 444.325 129.918C445.55 127.385 446.163 124.321 446.163 120.726C446.163 117.458 445.55 114.598 444.325 112.147C443.181 109.614 441.628 107.531 439.667 105.896C437.788 104.181 435.623 102.914 433.172 102.097C430.802 101.198 428.433 100.749 426.063 100.749H355.225L365.52 0.250977H473.984V35.4253H397.14L393.953 65.5747H426.063C433.335 65.5747 440.28 66.8411 446.898 69.374C453.598 71.9069 459.481 75.5837 464.547 80.4043C469.613 85.1432 473.657 90.9443 476.68 97.8076C479.703 104.589 481.215 112.229 481.215 120.726Z" fill="#BEBEBE"/>
</svg>
