<svg width="334" height="176" viewBox="0 0 334 176" fill="none" xmlns="http://www.w3.org/2000/svg">
<path d="M0.540039 44.7397C0.540039 41.1447 0.866862 37.3045 1.52051 33.2192C2.25586 29.0522 3.35889 24.967 4.82959 20.9634C6.382 16.8781 8.38379 13.0379 10.835 9.44287C13.2861 5.76611 16.2275 2.62044 19.6592 0.00585938L32.8955 9.32031C30.6077 11.9349 28.8919 14.4269 27.748 16.7964C26.6859 19.1659 25.828 21.5353 25.1743 23.9048C27.6255 24.3133 29.9132 25.1712 32.0376 26.4785C34.1619 27.7041 35.9595 29.2565 37.4302 31.1357C38.9826 32.9333 40.2082 35.0168 41.1069 37.3862C42.0057 39.674 42.4551 42.1252 42.4551 44.7397C42.4551 47.5994 41.8831 50.2957 40.7393 52.8286C39.6771 55.2798 38.1655 57.4858 36.2046 59.4468C34.3254 61.326 32.1193 62.8376 29.5864 63.9814C27.0535 65.0436 24.3981 65.5747 21.6201 65.5747C18.6787 65.5747 15.9007 65.0436 13.2861 63.9814C10.7533 62.8376 8.5472 61.326 6.66797 59.4468C4.78874 57.4858 3.27718 55.2798 2.1333 52.8286C1.07113 50.2957 0.540039 47.5994 0.540039 44.7397ZM185.604 52.9512C185.604 60.223 184.215 67.0863 181.437 73.541C178.659 79.9141 174.859 85.5109 170.039 90.3315C165.3 95.0705 159.744 98.8289 153.371 101.607C146.998 104.385 140.175 105.774 132.903 105.774H115.255C112.804 105.774 110.516 106.223 108.392 107.122C106.267 108.021 104.388 109.287 102.754 110.921C101.201 112.474 99.9759 114.312 99.0771 116.437C98.1784 118.561 97.729 120.849 97.729 123.3V140.826H180.824V176H62.5547V123.3C62.5547 116.028 63.9437 109.206 66.7217 102.833C69.4997 96.3778 73.2581 90.7809 77.9971 86.042C82.8177 81.2214 88.4146 77.4629 94.7876 74.7666C101.161 71.9886 107.983 70.5996 115.255 70.5996H132.903C135.354 70.5996 137.642 70.1502 139.767 69.2515C141.891 68.3527 143.729 67.1271 145.282 65.5747C146.916 63.9406 148.182 62.0614 149.081 59.937C149.98 57.731 150.429 55.4023 150.429 52.9512C150.429 50.5 149.98 48.2122 149.081 46.0879C148.182 43.9635 146.916 42.1252 145.282 40.5728C143.729 38.9386 141.891 37.6722 139.767 36.7734C137.642 35.8747 135.354 35.4253 132.903 35.4253H70.1533V0.250977H132.903C140.175 0.250977 146.998 1.63997 153.371 4.41797C159.744 7.19596 165.3 10.9953 170.039 15.8159C174.859 20.5549 178.659 26.1108 181.437 32.4839C184.215 38.8569 185.604 45.6794 185.604 52.9512ZM333.409 120.726C333.409 129.305 331.898 137.026 328.875 143.89C325.851 150.753 321.807 156.554 316.741 161.293C311.675 166.032 305.793 169.668 299.093 172.201C292.475 174.734 285.53 176 278.258 176H207.419V140.826H278.258C280.627 140.826 282.997 140.458 285.366 139.723C287.817 138.987 289.983 137.803 291.862 136.168C293.823 134.534 295.375 132.451 296.519 129.918C297.745 127.385 298.357 124.321 298.357 120.726C298.357 117.458 297.745 114.598 296.519 112.147C295.375 109.614 293.823 107.531 291.862 105.896C289.983 104.181 287.817 102.914 285.366 102.097C282.997 101.198 280.627 100.749 278.258 100.749H207.419L217.714 0.250977H326.178V35.4253H249.334L246.147 65.5747H278.258C285.53 65.5747 292.475 66.8411 299.093 69.374C305.793 71.9069 311.675 75.5837 316.741 80.4043C321.807 85.1432 325.851 90.9443 328.875 97.8076C331.898 104.589 333.409 112.229 333.409 120.726Z" fill="#BEBEBE"/>
</svg>
