<svg width="1217" height="187" viewBox="0 0 1217 187" fill="none" xmlns="http://www.w3.org/2000/svg">
<path d="M88.7041 184H53.6523V43.4253H0.82959V8.25098H141.404V43.4253H88.7041V184ZM188.099 151.89C189.406 152.298 190.714 152.584 192.021 152.748C193.328 152.829 194.636 152.87 195.943 152.87C199.211 152.87 202.357 152.421 205.38 151.522C208.403 150.623 211.222 149.357 213.836 147.723C216.533 146.007 218.902 143.964 220.945 141.595C223.069 139.144 224.785 136.447 226.092 133.506L250.604 158.14C247.499 162.552 243.904 166.515 239.819 170.028C235.815 173.542 231.444 176.524 226.705 178.975C222.048 181.426 217.105 183.265 211.875 184.49C206.728 185.798 201.417 186.451 195.943 186.451C186.71 186.451 178.008 184.735 169.838 181.304C161.749 177.872 154.641 173.092 148.513 166.964C142.466 160.836 137.687 153.565 134.173 145.149C130.66 136.652 128.903 127.337 128.903 117.206C128.903 106.829 130.66 97.3511 134.173 88.772C137.687 80.1929 142.466 72.8802 148.513 66.834C154.641 60.7878 161.749 56.0897 169.838 52.7397C178.008 49.3898 186.71 47.7148 195.943 47.7148C201.417 47.7148 206.769 48.3685 211.998 49.6758C217.227 50.9831 222.17 52.8623 226.828 55.3135C231.567 57.7646 235.979 60.7878 240.064 64.3828C244.149 67.8962 247.744 71.8589 250.849 76.271L188.099 151.89ZM205.257 82.8892C203.705 82.3172 202.153 81.9495 200.6 81.7861C199.129 81.6227 197.577 81.541 195.943 81.541C191.367 81.541 187.037 82.3989 182.952 84.1147C178.948 85.7489 175.435 88.1183 172.412 91.2231C169.47 94.328 167.142 98.0864 165.426 102.499C163.71 106.829 162.852 111.731 162.852 117.206C162.852 118.431 162.893 119.82 162.975 121.373C163.138 122.925 163.342 124.518 163.587 126.152C163.914 127.705 164.282 129.216 164.69 130.687C165.099 132.158 165.63 133.465 166.284 134.609L205.257 82.8892ZM381.497 78.8447L356.985 103.479C355.759 100.047 354.084 96.9834 351.96 94.2871C349.836 91.5091 347.425 89.1805 344.729 87.3013C342.114 85.422 339.255 83.9922 336.15 83.0117C333.045 82.0312 329.859 81.541 326.59 81.541C322.015 81.541 317.684 82.4806 313.599 84.3599C309.596 86.2391 306.082 88.8945 303.059 92.3262C300.118 95.6761 297.789 99.6797 296.073 104.337C294.357 108.994 293.5 114.142 293.5 119.779C293.5 124.355 294.357 128.644 296.073 132.648C297.789 136.652 300.118 140.165 303.059 143.188C306.082 146.211 309.596 148.581 313.599 150.296C317.684 152.012 322.015 152.87 326.59 152.87C329.859 152.87 333.004 152.421 336.027 151.522C339.05 150.623 341.869 149.357 344.484 147.723C347.18 146.007 349.55 143.964 351.592 141.595C353.717 139.144 355.432 136.447 356.74 133.506L381.251 158.14C378.147 162.552 374.552 166.515 370.466 170.028C366.463 173.542 362.091 176.524 357.353 178.975C352.695 181.426 347.752 183.265 342.523 184.49C337.375 185.798 332.065 186.451 326.59 186.451C317.358 186.451 308.656 184.735 300.485 181.304C292.396 177.79 285.288 173.011 279.16 166.964C273.114 160.918 268.334 153.851 264.821 145.762C261.307 137.673 259.551 129.012 259.551 119.779C259.551 109.729 261.307 100.333 264.821 91.5908C268.334 82.8483 273.114 75.2497 279.16 68.7949C285.288 62.2585 292.396 57.111 300.485 53.3525C308.656 49.5941 317.358 47.7148 326.59 47.7148C332.065 47.7148 337.416 48.4093 342.646 49.7983C347.956 51.1873 352.981 53.23 357.72 55.9263C362.541 58.5409 366.953 61.7682 370.957 65.6084C375.042 69.4486 378.555 73.8607 381.497 78.8447ZM431.378 184H397.919V0.529785H431.378V58.5C435.382 55.4769 439.508 53.3525 443.756 52.127C448.005 50.8197 452.335 50.166 456.748 50.166C464.836 50.166 472.435 51.7184 479.543 54.8232C486.652 57.8464 492.821 62.0542 498.05 67.4468C503.361 72.7576 507.528 79.0081 510.551 86.1982C513.656 93.3066 515.208 100.905 515.208 108.994V184H481.504V108.994H481.75C481.75 105.562 481.096 102.335 479.789 99.312C478.481 96.2072 476.684 93.5109 474.396 91.2231C472.108 88.9354 469.453 87.1379 466.43 85.8306C463.407 84.5233 460.179 83.8696 456.748 83.8696C453.234 83.8696 449.925 84.5233 446.82 85.8306C443.715 87.1379 441.019 88.9354 438.731 91.2231C436.444 93.5109 434.646 96.2072 433.339 99.312C432.032 102.335 431.378 105.562 431.378 108.994V184ZM532.366 60.9512C532.366 53.6794 533.755 46.8569 536.533 40.4839C539.311 34.1108 543.07 28.5549 547.809 23.8159C552.629 18.9953 558.226 15.196 564.599 12.418C570.972 9.63997 577.795 8.25098 585.066 8.25098H665.71V43.4253H585.066C582.615 43.4253 580.327 43.8747 578.203 44.7734C576.079 45.6722 574.2 46.9386 572.565 48.5728C571.013 50.1252 569.787 51.9635 568.889 54.0879C567.99 56.2122 567.541 58.5 567.541 60.9512C567.541 63.4023 567.99 65.731 568.889 67.937C569.787 70.0614 571.013 71.9406 572.565 73.5747C574.2 75.1271 576.079 76.3527 578.203 77.2515C580.327 78.1502 582.615 78.5996 585.066 78.5996H620.241C627.513 78.5996 634.335 79.9886 640.708 82.7666C647.163 85.4629 652.76 89.2214 657.499 94.042C662.319 98.7809 666.078 104.378 668.774 110.833C671.552 117.206 672.941 124.028 672.941 131.3C672.941 138.572 671.552 145.394 668.774 151.767C666.078 158.14 662.319 163.737 657.499 168.558C652.76 173.297 647.163 177.055 640.708 179.833C634.335 182.611 627.513 184 620.241 184H542.171V148.826H620.241C622.692 148.826 624.98 148.376 627.104 147.478C629.228 146.579 631.067 145.353 632.619 143.801C634.253 142.167 635.52 140.287 636.418 138.163C637.317 136.039 637.767 133.751 637.767 131.3C637.767 128.849 637.317 126.561 636.418 124.437C635.52 122.312 634.253 120.474 632.619 118.921C631.067 117.287 629.228 116.021 627.104 115.122C624.98 114.223 622.692 113.774 620.241 113.774H585.066C577.795 113.774 570.972 112.385 564.599 109.607C558.226 106.829 552.629 103.07 547.809 98.3315C543.07 93.5109 539.311 87.9141 536.533 81.541C533.755 75.0863 532.366 68.223 532.366 60.9512ZM756.158 184C748.069 184 740.471 182.488 733.362 179.465C726.254 176.361 720.003 172.153 714.611 166.842C709.3 161.449 705.092 155.199 701.987 148.09C698.964 140.982 697.453 133.383 697.453 125.294V86.3208H681.152V52.9849H697.453V0.529785H730.789V52.9849H781.528V86.3208H730.789V125.294C730.789 128.808 731.442 132.117 732.75 135.222C734.057 138.245 735.854 140.9 738.142 143.188C740.43 145.476 743.126 147.314 746.231 148.703C749.336 150.01 752.645 150.664 756.158 150.664H781.528V184H756.158ZM927.25 117.206C927.25 127.01 925.493 136.161 921.98 144.659C918.467 153.074 913.687 160.387 907.641 166.597C901.594 172.725 894.486 177.586 886.315 181.181C878.227 184.694 869.525 186.451 860.21 186.451C850.978 186.451 842.276 184.694 834.105 181.181C826.017 177.586 818.908 172.725 812.78 166.597C806.734 160.387 801.954 153.074 798.441 144.659C794.928 136.161 793.171 127.01 793.171 117.206C793.171 107.237 794.928 98.0047 798.441 89.5073C801.954 81.0099 806.734 73.6973 812.78 67.5693C818.908 61.3597 826.017 56.4982 834.105 52.9849C842.276 49.4715 850.978 47.7148 860.21 47.7148C869.525 47.7148 878.227 49.3898 886.315 52.7397C894.486 56.008 901.594 60.7061 907.641 66.834C913.687 72.8802 918.467 80.1929 921.98 88.772C925.493 97.2694 927.25 106.747 927.25 117.206ZM893.546 117.206C893.546 111.813 892.648 106.951 890.85 102.621C889.134 98.209 886.765 94.4505 883.742 91.3457C880.719 88.1592 877.164 85.7489 873.079 84.1147C869.076 82.3989 864.786 81.541 860.21 81.541C855.635 81.541 851.305 82.3989 847.219 84.1147C843.216 85.7489 839.702 88.1592 836.679 91.3457C833.738 94.4505 831.409 98.209 829.693 102.621C827.978 106.951 827.12 111.813 827.12 117.206C827.12 122.271 827.978 126.969 829.693 131.3C831.409 135.63 833.738 139.389 836.679 142.575C839.702 145.762 843.216 148.295 847.219 150.174C851.305 151.971 855.635 152.87 860.21 152.87C864.786 152.87 869.076 152.012 873.079 150.296C877.164 148.581 880.719 146.17 883.742 143.065C886.765 139.961 889.134 136.202 890.85 131.79C892.648 127.378 893.546 122.516 893.546 117.206ZM979.215 184H945.756V52.7397H953.845L964.875 68.3047C970.268 63.4023 976.396 59.6439 983.259 57.0293C990.123 54.333 997.231 52.9849 1004.58 52.9849H1034.12V86.3208H1004.58C1001.07 86.3208 997.762 86.9744 994.657 88.2817C991.552 89.589 988.856 91.3866 986.568 93.6743C984.281 95.9621 982.483 98.6584 981.176 101.763C979.868 104.868 979.215 108.177 979.215 111.69V184ZM1216.61 184H1183.27V100.66C1183.27 98.3724 1182.83 96.2072 1181.93 94.1646C1181.11 92.1219 1179.92 90.3244 1178.37 88.772C1176.82 87.2196 1175.02 86.0348 1172.98 85.2178C1170.94 84.319 1168.77 83.8696 1166.48 83.8696C1164.2 83.8696 1162.03 84.319 1159.99 85.2178C1158.03 86.0348 1156.27 87.2196 1154.72 88.772C1153.25 90.3244 1152.06 92.1219 1151.16 94.1646C1150.35 96.2072 1149.94 98.3724 1149.94 100.66V184H1116.48V100.66C1116.48 98.3724 1116.03 96.2072 1115.13 94.1646C1114.32 92.1219 1113.13 90.3244 1111.58 88.772C1110.03 87.2196 1108.23 86.0348 1106.19 85.2178C1104.14 84.319 1101.98 83.8696 1099.69 83.8696C1097.4 83.8696 1095.24 84.319 1093.19 85.2178C1091.23 86.0348 1089.48 87.2196 1087.92 88.772C1086.45 90.3244 1085.27 92.1219 1084.37 94.1646C1083.55 96.2072 1083.14 98.3724 1083.14 100.66V184H1049.69V52.7397H1057.77L1066.84 62.7896C1071.5 58.8677 1076.61 55.8446 1082.16 53.7202C1087.8 51.5142 1093.64 50.4111 1099.69 50.4111C1105.82 50.4111 1111.78 51.555 1117.58 53.8428C1123.47 56.1305 1128.61 60.0933 1133.03 65.731C1135.07 62.953 1137.4 60.5835 1140.01 58.6226C1142.63 56.6616 1145.36 55.0684 1148.22 53.8428C1151.16 52.6172 1154.19 51.7593 1157.29 51.269C1160.4 50.6971 1163.46 50.4111 1166.48 50.4111C1173.43 50.4111 1179.92 51.7184 1185.97 54.333C1192.1 56.9476 1197.41 60.5426 1201.9 65.1182C1206.48 69.612 1210.07 74.9229 1212.69 81.0508C1215.3 87.1787 1216.61 93.7152 1216.61 100.66V184Z" fill="#BEBEBE"/>
</svg>
