<svg width="267" height="373" viewBox="0 0 267 373" fill="none" xmlns="http://www.w3.org/2000/svg">
<path fill-rule="evenodd" clip-rule="evenodd" d="M108.749 158.075C108.475 158.602 107.673 163.94 110.821 163.94C111.371 163.941 111.903 163.744 112.319 163.385C112.736 163.026 113.009 162.529 113.089 161.985C113.753 156.002 109.843 156.022 108.749 158.075ZM137.096 157.996C137.272 160.069 137.507 161.906 139.579 161.906C140.129 161.908 140.661 161.711 141.077 161.352C141.494 160.992 141.767 160.495 141.847 159.951C141.889 158.693 141.751 157.436 141.436 156.217C140.302 154.126 136.803 154.634 137.096 157.996ZM123.411 176.882C124.017 176.882 129.276 176.628 130.508 175.67C130.879 175.396 130.84 174.868 130.84 174.379C130.723 168.834 130.187 163.305 129.237 157.84C129.237 157.547 128.983 157.488 128.826 157.527C128.67 157.566 128.592 157.84 128.611 158.309C128.611 159.912 128.475 160.46 129.041 169.433C129.413 175.298 129.257 173.656 129.374 174.633C127.54 175.305 125.658 175.835 123.743 176.217C122.473 176.491 123.372 176.882 123.411 176.882ZM129.589 190.41C128.138 191.188 126.539 191.648 124.897 191.759C124.814 191.759 124.734 191.792 124.676 191.851C124.617 191.91 124.584 191.989 124.584 192.072C124.584 192.155 124.617 192.235 124.676 192.293C124.734 192.352 124.814 192.385 124.897 192.385C125.815 192.715 126.797 192.834 127.767 192.733C128.738 192.631 129.674 192.312 130.504 191.799C131.335 191.286 132.039 190.593 132.564 189.77C133.089 188.947 133.422 188.017 133.538 187.048C133.548 187.008 133.551 186.966 133.545 186.926C133.539 186.885 133.525 186.846 133.505 186.811C133.484 186.775 133.456 186.744 133.423 186.719C133.39 186.695 133.353 186.677 133.313 186.666C133.273 186.656 133.232 186.654 133.191 186.66C133.151 186.665 133.111 186.679 133.076 186.7C133.041 186.721 133.01 186.748 132.985 186.781C132.96 186.814 132.942 186.852 132.932 186.891C132.14 188.333 130.989 189.546 129.589 190.41ZM41.9658 39.6407C46.9901 56.4342 64.7611 55.6131 66.8334 56.8643C66.8334 57.0597 70.8998 72.7193 72.542 74.8698C73.4608 76.0624 75.67 75.5932 77.1362 75.3195C80.577 74.6352 84.5652 74.4202 87.4782 72.0937C88.2211 71.4876 87.791 69.0243 87.5955 68.1837C86.9732 64.6685 86.111 61.2 85.0149 57.8027C84.5838 56.7777 84.2181 55.7264 83.9201 54.6551C85.2692 53.46 86.7365 52.4054 88.2993 51.5076C90.8789 49.7503 93.1734 47.6074 95.1027 45.1538C98.8356 39.6852 100.523 33.0764 99.8688 26.4876C99.2146 19.8988 96.2605 13.7509 91.525 9.12316C77.0385 -5.08969 50.8415 -0.456344 42.3372 17.471C39.4243 23.6879 39.9912 33.111 41.9658 39.6407ZM86.5789 71.1553C83.9787 73.2471 80.1469 73.5209 76.8039 74.2051C75.9046 74.4006 73.7736 74.9285 73.2067 74.2051C72.1005 72.6083 71.3047 70.8177 70.8607 68.9266C75.9248 68.2129 80.8779 66.8597 85.6014 64.8993C86.2404 66.9235 86.57 69.0326 86.5789 71.1553ZM85.3863 64.0977C80.3909 65.0287 75.4852 66.3893 70.7238 68.1642C70.2189 65.8951 69.5658 63.6617 68.7688 61.4781C73.8198 60.9491 78.7736 59.7254 83.49 57.8418C84.2788 59.9084 84.9318 62.0243 85.445 64.1759L85.3863 64.0977ZM43.5689 18.0771C51.7603 1.14676 76.8039 -3.13469 90.4889 10.2571C94.9368 14.6198 97.7194 20.4004 98.3549 26.5983C98.9904 32.7962 97.4388 39.0212 93.9688 44.1959C90.5866 48.9661 83.7441 52.2505 82.6884 53.9709C82.317 54.5769 83.0012 56.1214 83.4313 57.2162C81.2026 57.6463 78.7589 58.1741 76.5693 58.6629C75.9828 55.9845 73.2458 45.1734 72.2292 42.6319C71.8382 41.6153 71.4863 41.6935 70.4501 41.9867C64.7415 41.9867 58.466 40.54 56.4523 35.1638C56.2091 34.5336 56.0385 33.8776 55.944 33.2088C55.6703 30.3936 57.899 27.1092 60.3623 27.3438C60.0104 29.4943 60.3623 33.5998 62.2 34.8314C64.0377 36.0631 66.11 34.1081 66.11 32.3486C66.0058 31.0798 65.5934 29.8556 64.9086 28.7824C64.2237 27.7092 63.2873 26.8194 62.1805 26.1903C62.4878 25.4924 62.9432 24.8696 63.5152 24.3652C64.0872 23.8609 64.762 23.4869 65.4929 23.2693C66.2238 23.0517 66.9933 22.9957 67.748 23.1051C68.5027 23.2145 69.2246 23.4868 69.8636 23.903C68.3192 26.9137 69.8636 33.8148 72.6006 32.1922C75.3376 30.5695 74.4383 26.5813 72.7375 24.3722C71.9164 23.2969 71.7404 23.5902 72.151 23.2774C75.3376 20.9509 78.9544 23.6488 80.4793 27.1874C82.6689 32.0553 77.9769 38.0572 75.0053 39.8753C74.9327 39.9194 74.8806 39.9905 74.8604 40.073C74.8403 40.1555 74.8537 40.2426 74.8978 40.3152C74.9418 40.3878 75.0129 40.4399 75.0954 40.46C75.1779 40.4802 75.265 40.4668 75.3376 40.4227C78.9739 38.2918 83.5682 32.0162 81.4763 26.7377C79.3845 21.4592 74.1255 19.426 70.802 22.5736C69.9652 21.9994 69.0102 21.6202 68.0074 21.4641C67.0046 21.308 65.9795 21.3789 65.0077 21.6716C64.0359 21.9643 63.1422 22.4712 62.3924 23.1551C61.6425 23.8391 61.0557 24.6825 60.6751 25.6234C57.0388 25.1542 53.9695 29.3965 54.38 33.2479C54.6009 34.9501 55.2443 36.57 56.2517 37.9598C57.259 39.3496 58.5983 40.4651 60.1473 41.2047C61.985 42.0845 68.5147 43.6876 71.0953 42.9447C71.9946 44.8997 75.2594 56.3755 75.8459 58.7802C67.1657 60.7351 68.9252 61.654 68.4951 60.3833C67.9868 58.7997 67.674 56.4733 67.2439 56.3169C56.4523 53.8731 46.7164 52.0745 43.0801 39.2693C41.3011 33.0719 40.8319 23.8834 43.5689 18.0771ZM61.7113 27.7348C62.4521 28.2604 63.0712 28.9392 63.5266 29.7252C63.9819 30.5111 64.2629 31.3858 64.3505 32.2899C64.3505 32.8178 63.158 34.2449 62.3955 32.6809C61.8118 31.1017 61.6043 29.4082 61.7895 27.7348H61.7113ZM70.9389 24.7436C72.5029 26.2685 73.4804 29.8266 71.7795 30.8628C71.19 29.9709 70.8083 28.958 70.6628 27.8988C70.5173 26.8397 70.6117 25.7614 70.9389 24.7436ZM12.2889 99.366C20.2457 96.8831 29.8839 99.0336 33.5984 107.831C40.0303 122.728 23.0218 130.314 23.1978 131.096C23.5888 133.051 24.2926 136.472 24.5858 138.446C24.6092 138.612 24.6975 138.762 24.8313 138.863C24.9651 138.964 25.1335 139.007 25.2994 138.984C25.4653 138.961 25.6152 138.872 25.716 138.739C25.8168 138.605 25.8604 138.436 25.837 138.27C25.6024 136.315 25.3483 133.5 25.0746 131.467C27.8387 130.358 30.3964 128.792 32.6404 126.834C46.4427 110.549 31.0373 90.0015 11.3505 96.4334C8.23319 97.3424 5.47609 99.1992 3.46175 101.746C1.44741 104.293 0.275724 107.403 0.109246 110.646C-0.516354 118.349 5.62234 124.996 15.5342 124.136C15.6836 124.109 15.819 124.031 15.9165 123.915C16.014 123.799 16.0675 123.652 16.0675 123.5C16.0675 123.349 16.014 123.202 15.9165 123.086C15.819 122.969 15.6836 122.891 15.5342 122.865C6.73669 123.315 2.02515 117 2.8658 110.94C3.06055 108.277 4.06899 105.739 5.75452 103.669C7.44005 101.598 9.72118 100.096 12.2889 99.366ZM158.308 48.36C158.474 48.4041 158.65 48.3804 158.799 48.2943C158.947 48.2081 159.056 48.0665 159.1 47.9006C159.144 47.7347 159.12 47.558 159.034 47.4095C158.948 47.2611 158.806 47.1529 158.64 47.1088C150.175 44.7237 147.731 37.2361 150.468 31.7425C151.534 29.289 153.329 27.2226 155.609 25.8237C157.889 24.4249 160.545 23.7611 163.215 23.9225C177.916 24.294 184.368 37.8226 178.855 47.4803C175.199 54.0882 170.312 55.8672 164.056 56.6883C163.858 56.7161 163.675 56.8074 163.534 56.9485C163.393 57.0896 163.301 57.2727 163.274 57.4703C163.058 59.2689 162.589 62.8074 162.237 64.8602C162.204 65.0235 162.236 65.1936 162.328 65.3329C162.42 65.4722 162.563 65.5694 162.726 65.6031C162.889 65.6368 163.059 65.6042 163.199 65.5126C163.338 65.4209 163.435 65.2777 163.469 65.1143C163.919 63.0029 164.525 60.5201 164.935 58.4283C167.905 58.2685 170.827 57.6075 173.576 56.4733C180.204 52.5633 184.231 46.3855 183.703 38.5655C182.472 20.208 155.688 13.6392 147.985 30.7455C144.994 37.7053 148.631 46.1704 158.308 48.36ZM266.928 140.089C266.704 136.465 265.411 132.989 263.213 130.099C261.099 127.72 258.52 125.798 255.635 124.454C252.75 123.109 249.621 122.368 246.439 122.279C243.201 122.128 239.996 122.989 237.267 124.74C234.539 126.491 232.422 129.047 231.21 132.054C228.14 139.15 231.835 147.42 241.474 149.766C241.559 149.805 241.653 149.824 241.747 149.823C241.841 149.821 241.934 149.8 242.019 149.759C242.104 149.718 242.178 149.659 242.238 149.586C242.298 149.513 242.34 149.428 242.364 149.336C242.387 149.245 242.39 149.15 242.372 149.057C242.355 148.965 242.317 148.877 242.262 148.801C242.207 148.724 242.136 148.661 242.054 148.615C241.972 148.569 241.88 148.541 241.786 148.534C233.38 145.993 230.877 138.759 233.634 133.168C234.7 130.714 236.495 128.648 238.775 127.249C241.055 125.85 243.71 125.187 246.381 125.348C249.092 125.423 251.76 126.048 254.223 127.183C256.686 128.319 258.893 129.943 260.711 131.956C262.542 134.346 263.63 137.222 263.839 140.225C265.227 157.469 246.654 157.527 246.478 158.896C246.244 160.851 245.814 164.292 245.442 166.286C245.408 166.449 245.441 166.619 245.533 166.758C245.624 166.898 245.768 166.995 245.931 167.029C246.094 167.062 246.264 167.03 246.404 166.938C246.543 166.846 246.64 166.703 246.674 166.54C247.143 164.448 247.73 161.946 248.14 159.854C251.115 159.687 254.042 159.026 256.801 157.899C263.33 154.067 267.455 147.987 266.928 140.089ZM33.2856 153.265C34.1262 149.785 31.6043 146.13 29.1019 146.423C27.479 146.247 25.8446 146.202 24.2144 146.286C19.972 147.303 17.9779 152.855 21.9661 155.572C26.5408 158.622 32.4645 156.511 33.2856 153.265ZM30.2553 152.874C29.5611 153.454 28.7107 153.814 27.8116 153.91C22.494 154.653 21.3601 150 24.9377 148.476L29.141 147.694C30.9591 147.85 31.3697 151.74 30.2553 152.777V152.874ZM160.615 72.3283C156.06 70.6665 151.133 75.8082 154.359 80.1483C157.584 84.4884 163.977 84.4884 165.815 81.595C167.653 78.7016 166.538 74.3224 164.075 73.775C163.86 73.6772 162.159 72.8952 160.615 72.3283ZM163.078 80.1483C162.203 80.4459 161.267 80.5123 160.359 80.341C159.451 80.1698 158.603 79.7666 157.897 79.1708C157.32 78.756 156.845 78.2142 156.509 77.5872C155.942 76.0037 157.975 74.3811 159.461 74.2833L163.684 74.8894C165.326 75.7691 164.505 79.6009 163.078 80.207V80.1483ZM247.221 175.318C246.83 175.142 244.817 174.301 243.78 173.91C239.206 172.248 234.299 177.39 237.524 181.73C240.75 186.07 247.123 186.07 248.981 183.177C250.838 180.283 249.704 175.865 247.221 175.318ZM246.224 181.789C245.349 182.084 244.413 182.15 243.506 181.979C242.598 181.807 241.75 181.405 241.043 180.811C240.471 180.383 239.997 179.836 239.655 179.208C239.108 177.644 241.122 176.021 242.607 175.924L246.83 176.53C248.472 177.351 247.651 181.163 246.224 181.789Z" fill="#A4A4A4"/>
<path fill-rule="evenodd" clip-rule="evenodd" d="M231.248 283.156C227.338 263.918 212.129 234.281 193.869 226.715L190.193 219.032C190.167 218.976 190.129 218.926 190.082 218.887C190.035 218.847 189.98 218.818 189.921 218.801C189.861 218.784 189.799 218.78 189.738 218.79C189.677 218.799 189.619 218.822 189.568 218.856L185.658 221.378C184.416 213.079 180.624 205.373 174.808 199.325C178.874 193.05 185.384 191.134 192.109 190.841C197.681 190.606 201.787 190.274 205.012 185.503C211.405 176.08 209.9 166.892 202.393 158.133C190.956 144.8 186.459 148.789 180.888 141.418C170.292 127.577 167.887 107.108 152.286 96.4532C132.345 82.9441 121.592 93.8335 117.409 97.1961C111.29 93.4816 97.6437 94.7719 91.7787 99.7962C86.7935 104.058 80.1856 109.571 77.6245 115.729C72.1701 128.73 72.7566 144.116 64.7802 155.905C62.8252 158.837 59.4821 160.812 57.1166 163.588C53.8696 167.659 51.1076 172.094 48.886 176.804C45.9926 182.278 43.7835 188.358 46.4227 194.027C49.9613 201.613 57.879 208.846 66.3246 208.299C71.2121 207.966 77.6832 205.034 82.2774 206.969C85.0144 208.103 86.0701 210.742 88.1424 212.952C92.8344 218.171 103.782 219.755 109.843 216.138C103.176 224.623 93.0104 224.33 75.2785 234.105C48.0649 249.08 38.1335 266.089 35.2206 283.508C34.1063 288.927 33.284 294.402 32.7573 299.91C31.076 328.316 39.6975 364.327 67.654 370.29C75.3176 371.932 84.0956 372.988 91.681 371.092C106.05 367.514 123.196 357.837 135.786 349.978C141.651 346.322 163.351 331.679 173.439 329.763C174.046 334.98 175.362 340.091 177.349 344.953C185.423 361.551 198.346 371.365 216.449 367.103C228.179 364.347 231.522 351.854 231.835 339.89C237.719 327.26 233.047 292.344 231.248 283.156ZM163.605 191.623C167.085 192.268 169.47 195.533 172.051 198.191C178.874 205.014 183.566 212.326 184.974 221.651C179.324 225.249 175.648 227.516 175.57 227.634C175.492 227.751 172.774 220.83 171.132 219.99C168.675 218.77 166.447 217.136 164.544 215.161C163.078 213.538 161.279 210.684 161.514 208.533C162.553 207.98 163.687 207.629 164.857 207.497V206.285C158.816 206.461 156.743 211.974 156.196 213.206C155.805 214.086 155.258 214.965 154.006 214.828C152.755 214.692 152.306 213.245 152.775 211.955C153.244 210.664 154.378 204.995 162.374 203.763C162.474 203.749 162.57 203.715 162.657 203.664C162.744 203.613 162.821 203.545 162.881 203.464C162.942 203.383 162.987 203.291 163.012 203.193C163.037 203.095 163.043 202.993 163.029 202.893C163.015 202.793 162.981 202.697 162.93 202.61C162.878 202.522 162.81 202.446 162.729 202.385C162.649 202.325 162.557 202.28 162.459 202.255C162.361 202.23 162.259 202.224 162.159 202.238C160.485 202.451 158.863 202.961 157.369 203.744C156.026 204.399 154.833 205.327 153.868 206.468C152.902 207.609 152.183 208.938 151.758 210.371C150.82 213.049 147.535 211.857 148.317 209.55C149.104 207.306 150.275 205.215 151.778 203.372C153.446 201.782 155.45 200.586 157.643 199.873C159.363 199.169 160.829 199.501 161.22 198.934C161.611 198.367 160.692 196.471 160.223 195.904C157.701 192.893 150.448 195.493 147.672 192.131C145.893 189.922 149.627 189.844 151.133 189.648C155.355 189.179 159.363 190.821 163.605 191.623ZM170.78 240.067C165.192 241.889 159.491 243.345 153.713 244.427C155.668 233.303 156.998 223.763 156.802 220.302C161.357 221.182 166.577 221.808 172.286 222.746C173.83 225.307 174.671 227.458 175.042 228.064L171.249 230.468C171.054 230.723 171.093 229.667 170.78 240.067ZM149.549 296.547C150.415 300.301 151.029 304.109 151.387 307.945C143.371 307.437 137.252 307.535 134.241 307.417C134.359 301.924 134.417 300.223 134.515 299.069C139.449 297.819 144.477 296.975 149.549 296.547ZM118.797 248.396C129.888 248.475 140.963 247.572 151.895 245.698C148.415 264.466 143.117 287.027 140.615 291.543C134.867 275.864 135.453 275.805 118.797 248.396ZM142.257 291.288C145.424 284.192 150.233 263.019 153.439 245.385C159.275 244.291 165.029 242.802 170.663 240.928C170.057 262.042 169.881 288.395 171.152 309.568C167.437 309.235 162.041 308.766 156.802 308.356C156.47 305.189 155.16 294.162 154.045 291.269C153.752 290.487 153.4 290.174 152.09 290.135C148.821 290.278 145.567 290.664 142.355 291.288H142.257ZM149.236 216.705C147.256 215.548 145.674 213.816 144.701 211.74C145.606 212.121 146.55 212.403 147.516 212.58C147.882 212.993 148.355 213.297 148.883 213.459C149.41 213.621 149.972 213.635 150.507 213.499C151.387 213.225 150.82 213.108 151.289 214.34C151.469 214.836 151.773 215.278 152.171 215.624C152.569 215.971 153.049 216.21 153.566 216.319C154.082 216.429 154.618 216.405 155.122 216.25C155.627 216.096 156.084 215.815 156.45 215.434C157.213 214.75 157.271 213.929 158.19 212.17C159.089 211.994 159.969 211.759 160.829 211.505C163.156 217.605 170.448 220.557 170.956 221.006C162.374 219.735 154.769 218.934 149.334 216.705H149.236ZM111.759 214.359C116.451 208.924 115.493 205.034 110.664 201.183C100.889 193.519 102.101 195.572 97.9956 187.009C93.1668 173.109 97.3309 151.213 100.909 136.961C101.886 133.051 108.553 128.867 113.401 129.493C120.126 130.353 117.311 133.891 123.059 135.905C124.057 136.197 125.089 136.355 126.128 136.374C126.19 136.394 126.254 136.4 126.319 136.395C126.383 136.389 126.446 136.37 126.503 136.341C126.56 136.311 126.611 136.27 126.652 136.22C126.693 136.171 126.725 136.113 126.744 136.052C126.763 135.99 126.77 135.925 126.764 135.861C126.758 135.797 126.74 135.734 126.71 135.677C126.68 135.62 126.639 135.569 126.59 135.528C126.54 135.486 126.483 135.455 126.421 135.436C123.372 133.607 120.562 131.407 118.054 128.887C119.246 124.019 122.277 121.36 127.966 121.321C131.876 121.321 134.965 124.292 137.741 126.834C141.103 129.903 144.72 138.192 144.446 142.748C143.828 148.026 145.065 153.355 147.946 157.821C149.901 161.222 153.576 164.174 155.766 167.048C156.978 168.651 156.274 175.807 155.57 178.954C154.652 181.711 152.697 186.97 152.247 188.162C144.075 188.455 144.427 192.835 148.337 194.711C144.681 199.091 135.747 203.959 142.14 210.097C143.508 212.971 145.698 216.901 148.63 218.093C150.711 218.937 152.864 219.591 155.062 220.048C155.492 223.079 154.085 233.108 151.934 244.779C140.714 246.646 129.349 247.503 117.976 247.34C110.918 235.786 103.9 224.838 102.121 223.079C106.071 221.07 109.427 218.065 111.857 214.359H111.759ZM98.4257 224.662C102.336 223.196 100.381 223.45 101.319 224.173C102.258 224.897 108.709 235.121 116.197 247.262C107.321 247.125 97.3309 246.46 93.5578 246.03C94.6917 245.131 91.7592 229.686 90.6253 227.731C93.46 226.598 96.0797 225.6 98.5235 224.662H98.4257ZM89.1786 228.337C90.786 234.094 91.8786 239.982 92.4434 245.932C84.0077 244.723 75.7327 242.579 67.7713 239.54C74.5936 235.176 81.7902 231.427 89.2763 228.337H89.1786ZM90.9576 369.684C83.6264 371.522 75.0439 370.446 67.654 368.863C56.1 366.38 48.104 358.658 42.9037 348.765C34.6341 333.125 32.1708 309.881 34.6927 293.595C35.201 290.331 35.8462 287.105 36.3936 283.82C39.502 265.189 50.8215 251.152 66.6179 240.537C82.121 246.226 92.5412 248.22 116.9 248.357C133.772 275.727 134.144 278.464 138.972 291.855C137.487 292.129 130.605 293.517 129.432 294.475C128.963 294.847 128.963 295.589 129.432 307.339C111.642 307.691 94.242 310.467 77.8787 321.024C75.9237 306.928 78.1719 302.667 82.7271 294.592C89.8824 281.904 88.5921 279.558 84.076 272.345C83.3316 271.371 82.7988 270.252 82.512 269.06C82.512 268.591 80.557 267.946 83.3136 272.794C87.2236 279.91 88.2793 281.592 81.3586 293.81C76.2951 302.764 74.2228 307.359 77.2726 321.435C75.9041 322.353 74.3401 323.39 72.8348 324.602C70.535 326.221 68.3767 328.033 66.3833 330.017C66.3444 330.092 66.337 330.18 66.3626 330.26C66.3883 330.341 66.4449 330.408 66.5201 330.447C66.5953 330.486 66.6828 330.493 66.7635 330.468C66.8442 330.442 66.9113 330.385 66.9502 330.31C67.5563 329.235 77.6636 322.49 80.3811 321.102C95.5519 313.458 112.326 306.85 139.794 308.668C139.447 320.291 140.651 331.908 143.371 343.213C129.256 352.128 109.198 365.148 91.0554 369.684H90.9576ZM144.583 342.431C142.072 331.406 140.962 320.108 141.279 308.805C170.956 310.76 161.65 310.135 171.23 310.76C171.582 316.469 172.11 322.666 172.892 328.355C165.228 329.782 151.445 338.189 144.681 342.431H144.583ZM215.628 365.696C198.365 369.782 186.107 360.359 178.327 344.406C169.725 326.811 171.152 250.39 171.64 230.918L189.509 219.853C213.634 271.954 216.527 276.88 221.943 294.143C228.942 316.137 238.169 360.495 215.726 365.696H215.628ZM231.385 335.784C230.932 325.316 229.319 314.93 226.576 304.817C220.379 280.712 213.673 268.63 195.12 229.628L195.667 229.335C212.05 238.093 225.931 265.287 229.567 283.449C231.561 292.931 235.373 323.937 231.483 335.784H231.385Z" fill="#A4A4A4"/>
</svg>
