<svg width="1007" height="1089" viewBox="0 0 1007 1089" fill="none" xmlns="http://www.w3.org/2000/svg">
<g opacity="0.2">
<g filter="url(#filter0_f_131_98)">
<path d="M886 350.723C711.768 246.412 175.6 724.28 168.416 734.087C-136.041 1077.33 673.15 933.794 692.908 933.794C401.024 718.931 868.936 500.503 886 350.723Z" fill="#3B37FF"/>
<path d="M743.807 207.026C743.554 83.9533 445.876 233.283 297.069 323.332C178.663 491.291 568.931 749.61 583.352 593.837C605.94 349.829 744.125 360.867 743.807 207.026Z" fill="#37E7FF"/>
<path d="M703.085 246.356C707.261 107.222 367.017 295.558 196.372 407.117C26.3559 518.075 598.778 869.889 479.504 702.304C360.23 534.718 697.866 420.273 703.085 246.356Z" fill="#FF37D3"/>
<path d="M679.589 247.074C582.589 189.153 284.089 454.501 280.089 459.947C110.589 650.542 561.089 570.839 572.089 570.839C409.589 451.531 670.089 330.243 679.589 247.074Z" fill="#EB1B1B"/>
<path d="M680.817 346.952C687.645 268.602 426.179 425.465 294.592 513.691C239.465 549.7 340.943 601.123 444.889 706.538C548.836 811.953 580.568 706.148 575.127 565.787C569.685 425.426 672.282 444.889 680.817 346.952Z" fill="#FFF500"/>
<path d="M661.675 354.421C652.585 326.901 400.194 488.188 275.135 572.272C374.999 643.884 569.304 764.061 547.61 671.876C520.492 556.644 572.69 479.185 600.404 451.945C628.117 424.704 673.037 388.821 661.675 354.421Z" fill="white"/>
</g>
<g style="mix-blend-mode:color-dodge" filter="url(#filter1_f_131_98)">
<path d="M867.396 253.314C673.993 190.294 259.555 774.927 254.771 786.078C35.7005 1188.12 791.859 868.775 811.116 864.393C478.041 719.721 884.65 403.073 867.396 253.314Z" fill="#3B37FF"/>
<path d="M717.808 183.263C717.554 60.1908 419.876 209.52 271.069 299.569C152.663 467.529 542.932 725.847 557.352 570.075C579.941 326.066 718.125 337.104 717.808 183.263Z" fill="#37E7FF"/>
<path d="M846.085 289.335C877.212 224.76 543.16 430.214 339.373 450.096C169.356 561.054 741.778 912.868 622.504 745.283C503.23 577.697 770.394 446.362 846.085 289.335Z" fill="#FF37D3"/>
<path d="M645.255 149.534C536.495 118.187 316.731 450.471 314.275 456.75C199.828 684.018 614.603 492.562 625.235 489.768C437.262 415.725 657.621 232.333 645.255 149.534Z" fill="#EB1B1B"/>
<path d="M736.112 467.16C781.29 402.48 475.671 410.287 317.214 422.275C251.307 426.471 313.663 520.957 351.115 663.538C388.567 806.12 469.124 729.829 534.713 605.278C600.301 480.727 679.639 548.01 736.112 467.16Z" fill="#FFF500"/>
<path d="M711.742 373.712C703.087 346.055 448.185 503.423 321.817 585.564C420.54 658.71 612.927 781.875 592.688 689.366C567.39 573.729 620.802 497.086 648.942 470.277C677.081 443.468 722.561 408.283 711.742 373.712Z" fill="white"/>
</g>
</g>
<defs>
<filter id="filter0_f_131_98" x="0" y="60.3829" width="986" height="1003.18" filterUnits="userSpaceOnUse" color-interpolation-filters="sRGB">
<feFlood flood-opacity="0" result="BackgroundImageFix"/>
<feBlend mode="normal" in="SourceGraphic" in2="BackgroundImageFix" result="shape"/>
<feGaussianBlur stdDeviation="50" result="effect1_foregroundBlur_131_98"/>
</filter>
<filter id="filter1_f_131_98" x="114.985" y="36.6203" width="852.948" height="1052.18" filterUnits="userSpaceOnUse" color-interpolation-filters="sRGB">
<feFlood flood-opacity="0" result="BackgroundImageFix"/>
<feBlend mode="normal" in="SourceGraphic" in2="BackgroundImageFix" result="shape"/>
<feGaussianBlur stdDeviation="50" result="effect1_foregroundBlur_131_98"/>
</filter>
</defs>
</svg>
