<svg width="48" height="41" viewBox="0 0 48 41" fill="none" xmlns="http://www.w3.org/2000/svg">
<path d="M46 3.00009C44.0848 4.35105 41.9642 5.38431 39.72 6.06009C38.5155 4.67511 36.9147 3.69348 35.1341 3.24794C33.3535 2.80241 31.479 2.91448 29.7642 3.569C28.0493 4.22351 26.5769 5.38889 25.546 6.90753C24.515 8.42616 23.9754 10.2248 24 12.0601V14.0601C20.4853 14.1512 17.0025 13.3717 13.862 11.791C10.7215 10.2103 8.02063 7.87736 6 5.00009C6 5.00009 -2 23.0001 16 31.0001C11.8811 33.796 6.97431 35.198 2 35.0001C20 45.0001 42 35.0001 42 12.0001C41.9982 11.443 41.9446 10.8873 41.84 10.3401C43.8812 8.32708 45.3217 5.78552 46 3.00009Z" stroke="#F3F3F3" stroke-width="4" stroke-linecap="round" stroke-linejoin="round"/>
</svg>
